{"title":"Top Five 2014 DVDScr XVID AC3 HQ Hive-CM8","uid":11672920,"size":1438343275,"categoryP":"video","categoryS":"movies","magnet":"?xt=urn:btih:8b2f17e58ef83cc0aad8e02749e285cf6d8e5727&amp;dn=Top+Five+2014+DVDScr+XVID+AC3+HQ+Hive-CM8&amp;tr=udp%3A%2F%2Ftracker.openbittorrent.com%3A80&amp;tr=udp%3A%2F%2Fopen.demonii.com%3A1337&amp;tr=udp%3A%2F%2Ftracker.coppersurfer.tk%3A6969&amp;tr=udp%3A%2F%2Fexodus.desync.com%3A6969","seeders":8,"leechers":3,"uploader":"HeroMaster","files":3,"time":1422738520,"description":"Top.Five.2014.DVDScr.XVID.AC3.HQ.Hive-CM8\n\nThx Hive\n\nCM8 Doing It Right The First Time\n\nSource: DVDScr\nthx m8 for coming through\n\nNotes:\n\nfinally got the last good screener with nice cast innit, quality is very nice \ntoo Go get it!!\n\nEncode:\n\nremoved all kind of watermarks, fixed rgb, brightness and contrast, added \nsharpness got very nice\nenjoy\n\nVideo: 720x304 @bitrate 1600 2pass\nAudio: English AC3 2.0 Stereo\nSample: yes included\n\np.s Selma is next\n &lt;a href=&quot;\nhttp://www.imdb.com/title/tt2784678/&quot; rel=&quot;nofollow&quot; target=&quot;_NEW&quot;&gt;\nhttp://www.imdb.com/title/tt2784678/&lt;/a&gt;\n\nGeneral\nComplete name: Top.Five.2014.DVDScr.XVID.AC3.HQ.Hive-CM8.avi\nFormat: AVI\nFormat/Info: Audio Video Interleave\nFile size: 1.33 GiB\nDuration: 1h 41mn\nOverall bit rate: 1 864 Kbps\nWriting application: Nandub v1.0rc2\nWriting library: Nandub build 1853/release\n\nVideo\nID: 0\nFormat: MPEG-4 Visual\nFormat profile: Advanced Simple@L5\nFormat settings, BVOP: 2\nFormat settings, QPel: Yes\nFormat settings, GMC: No warppoints\nFormat settings, Matrix: Default (H.263)\nMuxing mode: Packed bitstream\nCodec ID: XVID\nCodec ID/Hint: XviD\nDuration: 1h 41mn\nBit rate: 1 596 Kbps\nWidth: 720 pixels\nHeight: 304 pixels\nDisplay aspect ratio: 2.35:1\nFrame rate: 29.970 fps\nColor space: YUV\nChroma subsampling: 4:2:0\nBit depth: 8 bits\nScan type: Progressive\nCompression mode: Lossy\nBits/(Pixel*Frame): 0.243\nStream size: 1.14 GiB (86%)\nWriting library: XviD 1.2.1 (UTC 2008-12-04)\n\nAudio\nID: 1\nFormat: AC-3\nFormat/Info: Audio Coding 3\nMode extension: CM (complete main)\nFormat settings, Endianness: Big\nCodec ID: 2000\nDuration: 1h 41mn\nBit rate mode: Constant\nBit rate: 256 Kbps\nChannel(s): 2 channels\nChannel positions: Front: L R\nSampling rate: 48.0 KHz\nBit depth: 16 bits\nCompression mode: Lossy\nStream size: 187 MiB (14%)\nAlignment: Split accross interleaves\nInterleave, duration: 33 ms (1.00 video frame)\nInterleave, preload duration: 500 ms\n\nPlot:\n\nA comedian tries to make it as a serious actor when his reality-TV star fianc e talks him into broadcasting their wedding on her TV show\n\nCast:\nChris Rock ... Andre Allen\nRosario Dawson ... Chelsea Brown\nJ.B. Smoove ... Silk\nGabrielle Union ... Erica Long\nRomany Malco ... Benny Barnes\nHayley Marie Norman ... Tammy\nAnders Holm ... Brad\nCedric the Entertainer ... Jazzy Dee\nKarlie Redd ... Rhonda\nKevin Barnett ... Columbia Student\nGenevieve Angelson ... Columbia Student\nBen Cole ... Columbia Student\nCorey Brown ... Columbia Student\nMaia Wilson ... Woman with Confidence\nTeddy Coluca ... Maurice \n\n\nGreetz\n\nSugarB\nSiMPLE\nViSiON,SceneLovers,PRESTiGE,SANTi,YanKeeS,COPYxRIGHT,THC\nLKRG,Kingstoner,MiLLENiUM,FooKaS,ACAB,Unevano,BigVik,Rapeseed,SAFC\ngoldadvance,KaN1vE,Pinnz,Wayne,SeeN,jtr,Limey,ICONiK,TED\nMr Hive,and most P2P\nGreat Work Guys \n\nLOOKING FOR ANYTHING YOU WANT TO LOOK AND SOUND BETTER\n\nCOME FIND US\n&lt;a class=&quot;__cf_email__&quot; href=&quot;/cdn-cgi/l/email-protection&quot; data-cfemail=&quot;76353b4e361e03051e1b171f1a581b13&quot;&gt;[email&amp;#160;protected]&lt;/a&gt;&lt;script cf-hash='f9e31' type=&quot;text/javascript&quot;&gt;\n/* &lt;![CDATA[ */!function(){try{var t=&quot;currentScript&quot;in document?document.currentScript:function(){for(var t=document.getElementsByTagName(&quot;script&quot;),e=t.length;e--;)if(t[e].getAttribute(&quot;cf-hash&quot;))return t[e]}();if(t&amp;&amp;t.previousSibling){var e,r,n,i,c=t.previousSibling,a=c.getAttribute(&quot;data-cfemail&quot;);if(a){for(e=&quot;&quot;,r=parseInt(a.substr(0,2),16),n=2;a.length-n;n+=2)i=parseInt(a.substr(n,2),16)^r,e+=String.fromCharCode(i);e=document.createTextNode(e),c.parentNode.replaceChild(e,c)}}}catch(u){}}();/* ]]&gt; */&lt;/script&gt;\n\n\nPoster:\n\n &lt;a href=&quot;\nhttp://i.imgur.com/mui0SxV.jpg&quot; rel=&quot;nofollow&quot; target=&quot;_NEW&quot;&gt;\nhttp://i.imgur.com/mui0SxV.jpg&lt;/a&gt;\n\n\nScreenshots:\n\n &lt;a href=&quot;\nhttp://i.imgur.com/JecCato.jpg&quot; rel=&quot;nofollow&quot; target=&quot;_NEW&quot;&gt;\nhttp://i.imgur.com/JecCato.jpg&lt;/a&gt;\n\n\nSEED AND ENJOY!","torrent":{"xt":"urn:btih:8b2f17e58ef83cc0aad8e02749e285cf6d8e5727","amp;dn":"Top+Five+2014+DVDScr+XVID+AC3+HQ+Hive-CM8","amp;tr":["udp%3A%2F%2Ftracker.openbittorrent.com%3A80","udp%3A%2F%2Fopen.demonii.com%3A1337","udp%3A%2F%2Ftracker.coppersurfer.tk%3A6969","udp%3A%2F%2Fexodus.desync.com%3A6969"],"infoHash":"8b2f17e58ef83cc0aad8e02749e285cf6d8e5727","infoHashBuffer":{"type":"Buffer","data":[139,47,23,229,142,248,60,192,170,216,224,39,73,226,133,207,109,142,87,39]},"announce":[],"urlList":[]}}